<svg xmlns="http://www.w3.org/2000/svg" viewBox="0 0 1440 320"><path fill="#343A40" fill-opacity="1" d="M0,128L30,149.3C60,171,120,213,180,208C240,203,300,149,360,154.7C420,160,480,224,540,240C600,256,660,224,720,213.3C780,203,840,213,900,202.7C960,192,1020,160,1080,154.7C1140,149,1200,171,1260,154.7C1320,139,1380,85,1410,58.7L1440,32L1440,320L1410,320C1380,320,1320,320,1260,320C1200,320,1140,320,1080,320C1020,320,960,320,900,320C840,320,780,320,720,320C660,320,600,320,540,320C480,320,420,320,360,320C300,320,240,320,180,320C120,320,60,320,30,320L0,320Z"></path></svg>